<svg id="Layer_1" data-name="Layer 1" xmlns="http://www.w3.org/2000/svg" viewBox="0 0 98.13 122.88"><defs><style>.cls-1,.cls-2{fill:#1a1a1a;}.cls-2,.cls-3,.cls-4{fill-rule:evenodd;}.cls-3{fill:#2394e0;}.cls-4{fill:#a1e367;}</style></defs><title>geography</title><path class="cls-1" d="M53.75,5.19A2.25,2.25,0,0,1,54.56.76,53.37,53.37,0,1,1,19.15,100a2.25,2.25,0,1,1,2.17-4,48.47,48.47,0,0,0,11.32,4.47A48.87,48.87,0,1,0,53.75,5.19Z"/><path class="cls-1" d="M57,10.61l3.58-9.17a2.25,2.25,0,1,1,4.2,1.62l-3.54,9.08A43.6,43.6,0,0,0,57,10.61Z"/><path class="cls-1" d="M31.56,95.26,28.12,105a2.25,2.25,0,0,1-4.25-1.5l3.45-9.78a43.44,43.44,0,0,0,4.24,1.5Z"/><polygon class="cls-2" points="38.37 104.56 50.15 104.56 50.15 111.39 38.37 111.39 38.37 104.56 38.37 104.56"/><path class="cls-2" d="M31.4,110.92h26a7.4,7.4,0,0,1,7.37,7.38v4.58H24V118.3a7.4,7.4,0,0,1,7.38-7.38Z"/><path class="cls-3" d="M44.19,8.71A44.2,44.2,0,1,1,0,52.91,44.2,44.2,0,0,1,44.19,8.71Z"/><path class="cls-4" d="M8.46,75.74a41.37,41.37,0,0,1-5.7-13.11l7.79,3.75,0,2.32c0,.86-1.46,2.67-1.92,3.36l-.21,3.68ZM56.33,13.38a41.65,41.65,0,0,1,28.1,33.88L83,47.11a7,7,0,0,0-.48,2.4c0,1.14,1.44,1.91,1.44,4.32,0,.64-1.52,1.94-1.59,2.16l-2.25-2.64v3.36l-.34,0L79.2,50.5l-1.26.39-1.49-4.61-4.94,5.15-.05,3.77-1.61,1.08-1.71-9.67-1,.75L64.8,44.23l-3.46.11L60,42.82l-1.36.38L56,40.14l-.51.35,1.65,4.22H59v-1h1c.69,1.91,1.44.77,1.44,1.92,0,4-4.93,6.92-8.16,7.67.17.72.11,1.44,1,1.44,1.81,0,.91-.32,2.88-.48-.09,4.08-4.68,8.94-6.63,12l.87,6.25c.23,1.36-2.81,2.79-3.85,4.32l.5,2.4-1.41.56C46.35,82.28,44,85,41.29,85H38.41c0-3.37-2.4-8.17-2.4-10.55,0-2,1-2.3,1-4.8,0-2.31-2.4-5.63-2.4-6.24V59.59H32.65c-.28-1.07-.11-1.44-1.44-1.44h-.48c-2.09,0-1.74,1-3.83,1H25c-1.73,0-4.8-5.56-4.8-6.24V47.11c0-2.48,2.27-5.19,3.84-6.24V38.48l2.16-2.2,1.2-.2c2.57,0,2.27-1.44,3.83-1.44h4.32V38l4.75,2,.45-2c2.15.5,2.71,1.46,5.36,1.46h1C48.87,39.44,49,37,49,35.12l-3.85.38-1.67-3.64-1.66.44c.3,1.3.46.76.46,1.86,0,.65-.53.72-1,1L39.63,30.9l-3.58-2.55-.47.47,3,3.2c-.4,1.15-.45,4.46-2.13,2.14l1.57-.75-3.91-4.1-2.34.91-2.32,2.22c-.24,1.78-.72,2.68-2.59,2.68-1.24,0-.49-.32-2.4-.48v-4.8h4.32l-1.4-3.19L26.9,27V26l7-3.23c-.13-1-.29-.46-.29-1.56a10.73,10.73,0,0,1,.48-1l1.81,1.12-.43-2.06-2.8.57-.52-2.51c2.22-1.17,7.1-5.28,8.65-5.28h1.44c1.52,0,5.58,1.5,6.24,2.4l-3.85-.39,2.85,2.35.28-1,2.13-.58,0-1.34h1V15l5.44-1.59Z"/></svg>